# xmcd
#
# Track frame offsets:
#	150
#	13199
#	28288
#	43513
#	57975
#	72171
#	88387
#	103667
#	115612
#	129657
#	144072
#	158787
#	173154
#	189439
#	207111
#	219419
#	230172
#	247648
#	263160
#	278365
#	292996
#
# Disc length: 4107 seconds
#
# Revision: 0
# Processed by: cddbd v1.5.2PL0 Copyright (c) Steve Scherf et al.
# Submitted via: EasyCDDAExtractor 16.0.8.2
#
DISCID=26100915
DTITLE=Καζαντζίδης Στέλιος - Αυτή είναι η ζωή μου-Σ. Καζαντζίδης 1
DYEAR=1992
DGENRE=Λαϊκή
TTITLE0=Η ζωή μου όλη [1974, Άκη Πάνου]
TTITLE1=Καρδιά πληγωμένη [1961, Γ. Λαύκα]
TTITLE2=Άσπρο πουκάμισο φορώ [1956, Β. Τσιτσάνη]
TTITLE3=Είσαι η ζωή μου [1958, Σ. Καζαντζίδη]
TTITLE4=Η πρώτη αγάπη σου είμαι εγώ [1957, Γ. Μητσάκη]
TTITLE5=Έφυγε, έφυγε [1969, Β. Βασιλειάδη-Πυθαγόρα-Π. Ζερμανίδου]
TTITLE6=Φεύγω με πίκρα στα ξένα [1958, Σ. Καζαντζίδη]
TTITLE7=Στο τραπέζι που τα πίνω[1969, Α.Καλδάρα-Ε.Παπαγιαννοπούλου]
TTITLE8=Νυχτερίδες κι αράχνες [1968,Σ.Καζαντζίδη-Χ.Νικο/λου-Κ.Βίρβου]
TTITLE9=Θεσσαλονίκη μου [1956, Μ. Χιώτη-Χ. Κολοκοτρώνη]
TTITLE10=Απόκληρος της κοινωνίας [1958, Σ. Καζαντζίδη-Κ. Βίρβου]
TTITLE11=Μαντουμπάλα (Μαντουβάλα)[1958, Σ. Καζαντζίδη]
TTITLE12=Παίξε Χρήστο το μπουζούκι [1961, Β. Τσιτσάνη]
TTITLE13=Τα χείλη σου όσα κι αν πουν [1965, Μ. Μπακάλη-Σ. Κάξου]
TTITLE14=Ένα πιάτο άδειο στο τραπέζι [1966, Θ. Δερβενιώτη-Κ. Βίρβου]
TTITLE15=Να φύγω, να φύγω [1966, Γ. Κατσαρού-Πυθαγόρα]
TTITLE16=Βράχο βράχο τον καημό μου[1962,Μ.Θεοδωράκη-Δ.Χριστοδούλου]
TTITLE17=Συννεφιασμένη Κυριακή [1960, Β. Τσιτσάνη]
TTITLE18=Βαρέθηκα τέτοια ζωή [bonus track]
TTITLE19=Για μάς ποτέ μη ξημερώσει [bonus track]
TTITLE20=Ζιγκουάλα [bonus track]
EXTD=
EXTT0=
EXTT1=
EXTT2=
EXTT3=
EXTT4=
EXTT5=
EXTT6=
EXTT7=
EXTT8=
EXTT9=
EXTT10=
EXTT11=
EXTT12=
EXTT13=
EXTT14=
EXTT15=
EXTT16=
EXTT17=
EXTT18=
EXTT19=
EXTT20=
PLAYORDER=
